<mxfile host="app.diagrams.net" modified="2023-09-01T13:32:08.918Z" agent="Mozilla/5.0 (Windows NT 10.0; Win64; x64) AppleWebKit/537.36 (KHTML, like Gecko) Chrome/116.0.0.0 Safari/537.36" version="21.7.1" etag="SjdEN89uyL_8kybDLlMo" type="github">
  <diagram name="PÃ¡gina-1" id="NMXG_klmdgWXdQGQIv3X">
    <mxGraphModel>
      <root>
        <mxCell id="0" />
        <mxCell id="1" parent="0" />
      </root>
    </mxGraphModel>
  </diagram>
</mxfile>
